HIERARCHY
ROOT Hips
{
	OFFSET 0.00000 0.00000 0.00000
	CHANNELS 6 Xposition Yposition Zposition Yrotation Zrotation Xrotation 
	JOINT Lumbar
	{
		OFFSET 0 0 0
		CHANNELS 3 Zrotation Xrotation Yrotation
		JOINT Neck
		{
			OFFSET 0.00 0.2701 0.00
			CHANNELS 3 Zrotation Xrotation Yrotation
			End Site
			{
				OFFSET 0.00 0.1379 0.00
			}
		}
		JOINT RightShoulder
		{
			OFFSET 0.0119 0.2289 0.1181
			CHANNELS 3 Zrotation Xrotation Yrotation
			JOINT RightElbow
			{
				OFFSET 0.00 -0.1475 0.00
				CHANNELS 2 Zrotation Yrotation
				JOINT RightWrist
				{
					OFFSET 0.00 -0.1605 0.00
					CHANNELS 2 Zrotation Xrotation
					End Site
					{
						OFFSET 0.0040 -0.1068 0.0006
					}
				}
			}
		}
		JOINT LeftShoulder
		{
			OFFSET 0.0119 0.2289 -0.1181
			CHANNELS 3 Zrotation Xrotation Yrotation
			JOINT LeftElbow
			{
				OFFSET 0.00 -0.1475 0.00
				CHANNELS 2 Zrotation Yrotation
				JOINT LeftWrist
				{
					OFFSET 0.00 -0.1605 0.00
					CHANNELS 2 Zrotation Xrotation
					End Site
					{
						OFFSET 0.0040 -0.1068 -0.0006
					}
				}
			}
		}
	}
	JOINT RightHip
	{
		OFFSET 0.0316 -0.0424 0.0458
		CHANNELS 3 Zrotation Xrotation Yrotation
		JOINT RightKnee
		{
			OFFSET 0.00 -0.2438 0.00
			CHANNELS 1 Zrotation
			JOINT RightAnkle
			{
				OFFSET 0.00 -0.2449 0.00
				CHANNELS 3 Zrotation Xrotation Yrotation
				End Site
				{
					OFFSET 0.1237 -0.0542 0.0051
				}
			}
		}
	}
	JOINT LeftHip
	{
		OFFSET 0.0316 -0.0424 -0.0458
		CHANNELS 3 Zrotation Xrotation Yrotation
		JOINT LeftKnee
		{
			OFFSET 0.00 -0.2438 0.00
			CHANNELS 1 Zrotation
			JOINT LeftAnkle
			{
				OFFSET 0.00 -0.2449 0.00
				CHANNELS 3 Zrotation Xrotation Yrotation
				End Site
				{
					OFFSET 0.1237 -0.0542 -0.0051
				}
			}
		}
	}
}
MOTION
Frames: 19
Frame Time: 0.02
-0.0004 3e-05 1e-05 172.63585 -45.29912 -1.34964 58.2811 1.08027 1.71216 -11.38782 -0.6523 -0.14617 22.96685 -96.24821 -90.0126 5.32839 81.06253 -15.37908 1.50653 6.70832 107.51552 -64.17044 5.32871 -94.3484 8.22317 2.90356 50.82305 -2.44678 -3.93719 -19.42715 -8.55448 -5.18869 -3.48201 52.81719 3.37135 -0.61591 -24.35965 -10.43704 5.92823 4.07595
-0.00072 -2e-05 -8e-05 172.73401 -45.31331 -1.31739 58.33815 1.05086 1.66648 -11.59719 -0.6212 -0.14454 26.1718 -95.96291 -90.01234 5.32842 79.97926 -14.68023 0.96685 7.87173 107.0768 -64.17045 5.3287 -93.35827 7.95759 2.48558 50.78735 -2.4747 -4.04675 -19.41342 -8.53632 -5.17994 -3.47802 52.81112 3.44456 -0.23954 -24.3628 -10.38738 5.91268 4.05931
-0.00103 -7e-05 -0.00017 172.8321 -45.32746 -1.2852 58.39501 1.02151 1.62084 -11.80597 -0.59019 -0.14292 29.36948 -95.67845 -90.01207 5.32845 78.89917 -13.98311 0.42836 9.03207 106.63893 -64.17047 5.32869 -92.3735 7.69316 2.06903 50.75171 -2.50258 -4.15621 -19.39973 -8.51821 -5.17122 -3.47404 52.80508 3.51761 0.13595 -24.36594 -10.3378 5.89716 4.0427
-0.00135 -0.00011 -0.00026 172.93 -45.3416 -1.25304 58.45187 0.99219 1.57528 -12.0147 -0.55919 -0.1413 32.56507 -95.39403 -90.01181 5.32848 77.81921 -13.28632 -0.10975 10.19201 106.20148 -64.17049 5.32867 -91.38688 7.42847 1.65237 50.71611 -2.53043 -4.26548 -19.38604 -8.5001 -5.1625 -3.47005 52.79903 3.5906 0.51122 -24.36908 -10.28828 5.88165 4.02611
-0.00166 -0.00016 -0.00035 173.02788 -45.35578 -1.22084 58.50894 0.96281 1.52972 -12.224 -0.52809 -0.13967 35.76672 -95.10878 -90.01156 5.32851 76.73615 -12.58801 -0.64883 11.35474 105.76339 -64.1705 5.32866 -90.3938 7.16246 1.23421 50.68048 -2.5583 -4.37475 -19.37232 -8.48197 -5.15377 -3.46606 52.79295 3.66375 0.88724 -24.37222 -10.2387 5.86614 4.0095
-0.00198 -0.00021 -0.00044 173.12641 -45.36988 -1.18865 58.56535 0.93355 1.48391 -12.43166 -0.49729 -0.13806 38.95574 -94.826 -90.01129 5.32855 75.66234 -11.89345 -1.18601 12.50995 105.32601 -64.17052 5.32865 -89.4264 6.90135 0.82109 50.64484 -2.5862 -4.48459 -19.35869 -8.4639 -5.14508 -3.4621 52.78699 3.73658 1.26157 -24.37535 -10.18913 5.85058 3.99291
-0.00229 -0.00025 -0.00054 173.22351 -45.38411 -1.15649 58.62301 0.90408 1.43866 -12.64239 -0.46593 -0.13642 42.16714 -94.53857 -90.01104 5.32857 74.57114 -11.19203 -1.72654 13.67916 104.88769 -64.17054 5.32863 -88.40912 6.63081 0.39833 50.60923 -2.61401 -4.59321 -19.34489 -8.44572 -5.13629 -3.45809 52.78079 3.80997 1.63894 -24.37852 -10.13959 5.83513 3.97629
-0.00261 -0.0003 -0.00063 173.32194 -45.39824 -1.12429 58.67952 0.8748 1.3929 -12.85028 -0.43508 -0.1348 45.35701 -94.25542 -90.01077 5.32861 73.49592 -10.49707 -2.26377 14.83523 104.45023 -64.17055 5.32862 -87.43649 6.36872 -0.01564 50.57362 -2.6419 -4.70288 -19.33125 -8.42764 -5.12761 -3.45412 52.77483 3.88282 2.01343 -24.38165 -10.09003 5.81958 3.9597
-0.00292 -0.00035 -0.00072 173.42206 -45.41218 -1.09205 58.73466 0.84574 1.34643 -13.05483 -0.40484 -0.13321 48.5259 -93.9774 -90.01048 5.32865 72.43996 -9.80908 -2.7981 15.97673 104.01355 -64.17057 5.32861 -86.52382 6.11785 -0.41861 50.53788 -2.66992 -4.81422 -19.31778 -8.40967 -5.11903 -3.4502 52.76909 3.95513 2.3849 -24.38474 -10.04037 5.80389 3.94315
-0.00325 -0.00039 -0.00081 173.51265 -45.42699 -1.06009 58.79779 0.8154 1.30376 -13.27902 -0.37106 -0.1315 51.83171 -93.66958 -90.01032 5.32864 71.27236 -9.0782 -3.35257 17.20656 103.57156 -64.17059 5.32859 -85.28232 5.80511 -0.88413 50.50253 -2.69729 -4.91709 -19.30327 -8.39101 -5.10977 -3.446 52.76185 4.03091 2.77526 -24.38806 -9.99108 5.78897 3.92636
-0.00354 -0.00044 -0.0009 173.62319 -45.44009 -1.02751 58.84398 0.78776 1.25327 -13.46146 -0.34478 -0.13001 54.83775 -93.42483 -90.0099 5.32873 70.34091 -8.43971 -3.86222 18.24704 103.14137 -64.1706 5.32858 -84.72409 5.62116 -1.21812 50.46658 -2.72595 -5.03707 -19.29098 -8.37385 -5.10197 -3.4424 52.75793 4.09913 3.12475 -24.39089 -9.94115 5.77245 3.91009
-0.00375 -0.00047 -0.00099 173.7903 -45.44751 -0.99337 58.8439 0.7675 1.17966 -13.53078 -0.33897 -0.12922 57.10438 -93.3529 -90.00865 5.32912 70.05851 -8.04128 -4.2672 18.78695 102.73878 -64.17067 5.32857 -86.14663 5.80857 -1.18413 50.42698 -2.7591 -5.2114 -19.28464 -8.3604 -5.09801 -3.4403 52.76178 4.14855 3.36975 -24.39244 -9.88816 5.75114 3.89492
-0.00392 -0.00049 -0.00109 173.97702 -45.45337 -0.95861 58.82678 0.74995 1.09856 -13.55792 -0.34071 -0.12864 59.05466 -93.34427 -90.00713 5.32959 70.0131 -7.73804 -4.62384 19.13263 102.34897 -64.1707 5.32857 -88.23597 6.12192 -1.01931 50.38711 -2.7934 -5.40183 -19.28055 -8.34849 -5.09552 -3.43882 52.76915 4.19006 3.5724 -24.39348 -9.83476 5.72829 3.88032
-0.00411 -0.00051 -0.00118 174.15364 -45.46062 -0.92404 58.8173 0.73111 1.02189 -13.6034 -0.33909 -0.12791 61.09541 -93.30693 -90.00584 5.33 69.85843 -7.40016 -4.99062 19.55551 101.95638 -64.17078 5.32857 -89.95068 6.36602 -0.91909 50.34872 -2.82652 -5.57973 -19.27553 -8.33616 -5.0925 -3.43717 52.77581 4.23389 3.78931 -24.3947 -9.78238 5.70639 3.86566
-0.00431 -0.00054 -0.00128 174.33563 -45.46508 -0.88979 58.8082 0.71244 0.94065 -13.65224 -0.33719 -0.12739 63.36046 -93.2698 -90.00425 5.33049 69.71049 -7.02647 -5.40708 20.02712 101.55085 -64.1709 5.32855 -91.96775 6.66136 -0.79724 50.30476 -2.86229 -5.77851 -19.27014 -8.32277 -5.089 -3.4351 52.77891 4.28296 4.02681 -24.39614 -9.72647 5.6834 3.85017
-0.00448 -0.00056 -0.00137 174.51068 -45.47484 -0.85483 58.79429 0.69415 0.86745 -13.68412 -0.33764 -0.12649 65.08342 -93.24683 -90.00306 5.33085 69.6051 -6.74944 -5.70882 20.34817 101.17552 -64.17072 5.32857 -93.51466 6.8795 -0.68902 50.27214 -2.89298 -5.93906 -19.26605 -8.31182 -5.08673 -3.43398 52.79003 4.3194 4.21186 -24.397 -9.67785 5.66235 3.83653
-0.00457 -0.00058 -0.00145 174.66511 -45.50087 -0.81722 58.77116 0.67564 0.81563 -13.67934 -0.34297 -0.12449 65.39107 -93.25081 -90.00303 5.33082 69.55556 -6.71917 -5.70368 20.32703 100.87815 -64.16969 5.32872 -93.58448 6.85537 -0.65454 50.27237 -2.90792 -5.97731 -19.26517 -8.3084 -5.08837 -3.43593 52.82433 4.32137 4.25858 -24.39638 -9.64906 5.64673 3.8278
-0.00464 -0.0006 -0.00153 174.81122 -45.53203 -0.77909 58.74377 0.65754 0.77267 -13.65902 -0.35035 -0.12212 65.16644 -93.26623 -90.00252 5.33065 69.54165 -6.78171 -5.58504 20.15593 100.61092 -64.16724 5.32892 -93.16125 6.7485 -0.63765 50.28371 -2.91792 -5.97856 -19.26551 -8.3072 -5.09104 -3.43871 52.86616 4.31118 4.25472 -24.39519 -9.62768 5.63317 3.82092
-0.00472 -0.00062 -0.00161 174.95899 -45.5601 -0.74175 58.71845 0.63963 0.72733 -13.64587 -0.35664 -0.11993 65.17899 -93.27424 -90.00342 5.33055 69.51325 -6.80042 -5.51981 20.03691 100.33172 -64.16689 5.32907 -92.97331 6.67872 -0.61001 50.28901 -2.9312 -6.00556 -19.26518 -8.30417 -5.09261 -3.44068 52.90335 4.30757 4.27662 -24.39425 -9.60318 5.61887 3.81324
